<?xml version="1.0" encoding="UTF-8"?>
<svg id="logo" xmlns="http://www.w3.org/2000/svg" version="1.1" xmlns:xlink="http://www.w3.org/1999/xlink" viewBox="0 0 512 512">
  <!-- Generator: Adobe Illustrator 29.8.3, SVG Export Plug-In . SVG Version: 2.1.1 Build 3)  -->
  <defs>
    <style>
      .st0 {
        fill: #ff8100;
        filter: url(#drop-shadow-2);
      }

      .st1 {
        fill: none;
      }

      .st2 {
        filter: url(#drop-shadow-3);
      }

      .st2, .st3 {
        fill: #fff;
      }

      .st3, .st4 {
        display: none;
      }

      .st5 {
        filter: url(#drop-shadow-1);
      }

      .st6 {
        fill: #9e005d;
      }
    </style>
    <filter id="drop-shadow-1" x="113" y="99" width="286" height="314" filterUnits="userSpaceOnUse">
      <feOffset dx="0" dy="0"/>
      <feGaussianBlur result="blur" stdDeviation="5"/>
      <feFlood flood-color="#000" flood-opacity=".5"/>
      <feComposite in2="blur" operator="in"/>
      <feComposite in="SourceGraphic"/>
    </filter>
    <filter id="drop-shadow-2" x="49" y="20" width="414" height="472" filterUnits="userSpaceOnUse">
      <feOffset dx="0" dy="0"/>
      <feGaussianBlur result="blur1" stdDeviation="5"/>
      <feFlood flood-color="#000" flood-opacity=".5"/>
      <feComposite in2="blur1" operator="in"/>
      <feComposite in="SourceGraphic"/>
    </filter>
    <filter id="drop-shadow-3" x="97" y="113" width="194" height="277" filterUnits="userSpaceOnUse">
      <feOffset dx="0" dy="0"/>
      <feGaussianBlur result="blur2" stdDeviation="5"/>
      <feFlood flood-color="#000" flood-opacity=".5"/>
      <feComposite in2="blur2" operator="in"/>
      <feComposite in="SourceGraphic"/>
    </filter>
  </defs>
  <rect class="st4" width="512" height="512"/>
  <path class="st3" d="M224,128c-61.86,0-112,42.98-112,96,0,36.15,23.31,67.62,57.75,83.99,3.8,1.81,6.25,5.62,6.25,9.84v17.55c0,1.79.96,3.45,2.52,4.34l13.48,7.7v-19.66h0c2.63.7,5.3,1.33,8,1.87h0v22.36l16,9.14v-29.41h0c2.64.16,5.31.26,8,.26v33.72l16,9.14v-74.86h-9.17c-1.38,0-2.35-1.36-1.89-2.67l9.17-25.99c.31-.89,1.1-1.33,1.89-1.33v-12.86c0-9.47,7.68-17.14,17.14-17.14h18.86v-101.04c-15.54-7-33.23-10.96-52-10.96ZM221,246.9c-3.33,8.21-9.89,14.77-18.1,18.1-31.12,12.63-60.53-16.78-47.9-47.9,3.33-8.21,9.89-14.77,18.1-18.1,31.12-12.63,60.53,16.78,47.9,47.9Z"/>
  <g id="fingers" class="st5">
    <path class="st1" d="M256,256h20v132.52l16-8.99v-123.53h20v112.29l16-8.99v-103.3h20v92.06l16-8.99v-83.06h20v-8h-20v-75.3l-16-8.99v84.29h-20v-95.53l-16-8.99v104.53h-20v-115.77l-28.65-16.1c-4.56-2.57-10.13-2.57-14.7,0l-113,63.51c-4.73,2.66-7.65,7.66-7.65,13.08v126.33c0,5.42,2.92,10.42,7.65,13.08l113,63.51c2.28,1.28,4.82,1.92,7.35,1.92v-141.56Z"/>
    <path class="st6" d="M256,256v141.56c2.53,0,5.07-.64,7.35-1.92l12.65-7.11v-132.52h-20Z"/>
    <polygon class="st6" points="292 256 292 379.53 312 368.29 312 256 292 256"/>
    <polygon class="st6" points="328 256 328 359.3 348 348.06 348 256 328 256"/>
    <path class="st6" d="M364,339.06l12.35-6.94c4.73-2.66,7.65-7.66,7.65-13.08v-63.05h-20v83.06Z"/>
    <path class="st6" d="M384,248v-55.28c0-5.42-2.92-10.42-7.65-13.08l-12.35-6.94v75.3h20Z"/>
    <polygon class="st6" points="348 248 348 163.71 328 152.47 328 248 348 248"/>
    <polygon class="st6" points="312 248 312 143.47 292 132.23 292 248 312 248"/>
  </g>
  <path class="st0" d="M438.08,138.21l-172-100.33c-6.23-3.63-13.93-3.63-20.15,0l-172,100.33c-6.14,3.58-9.92,10.16-9.92,17.28v201.03c0,7.11,3.78,13.69,9.92,17.28l172,100.33c6.23,3.63,13.93,3.63,20.15,0l172-100.33c6.14-3.58,9.92-10.16,9.92-17.28v-201.03c0-7.11-3.78-13.69-9.92-17.28ZM416,338.55c0,7.09-3.75,13.65-9.87,17.24l-140,82.25c-6.25,3.67-14.01,3.67-20.26,0l-140-82.25c-6.11-3.59-9.87-10.15-9.87-17.24v-165.11c0-7.09,3.75-13.65,9.87-17.24l140-82.25c6.25-3.67,14.01-3.67,20.26,0l140,82.25c6.11,3.59,9.87,10.15,9.87,17.24v165.11Z"/>
  <path class="st2" d="M224,128c-61.86,0-112,42.98-112,96,0,36.15,23.31,67.62,57.75,83.99,3.8,1.81,6.25,5.62,6.25,9.84v14.17c0,3.89,2.08,7.48,5.46,9.41l10.54,6.02v-19.66h0c2.63.7,5.3,1.33,8,1.87h0v22.36l16,9.14v-29.41h0c2.64.16,5.31.26,8,.26v33.72l16,9.14v-137.86c0-9.39,7.61-17,17-17h19v-81.04c-15.54-7-33.23-10.96-52-10.96ZM202.9,265c-31.12,12.63-60.53-16.78-47.9-47.9,3.33-8.21,9.89-14.77,18.1-18.1,31.12-12.62,60.53,16.78,47.9,47.9-3.33,8.21-9.89,14.77-18.1,18.1ZM232.95,292h-13.91c-3.44,0-5.86-3.4-4.72-6.65l6.95-19.86c1.56-4.46,7.88-4.46,9.44,0l6.95,19.86c1.14,3.25-1.28,6.65-4.72,6.65Z"/>
</svg>